<svg width="60" height="60" viewBox="0 0 60 60" fill="none" xmlns="http://www.w3.org/2000/svg">
<rect width="60" height="60" rx="10" fill="black"/>
<rect x="0.5" y="0.5" width="59" height="59" rx="9.5" stroke="black" stroke-opacity="0.3"/>
<path d="M38.75 21.7188L49.9805 27.3438V42.6172L38.75 48.2422L27.5 42.6562V36.3867L21.25 39.4922L10 33.9062L10.0195 18.5938L21.25 12.9688L32.4805 18.5938L32.5 24.8633L38.75 21.7188ZM45.9375 28.1055L38.75 24.5312L31.5625 28.1055L38.75 31.6992L45.9375 28.1055ZM28.4375 19.3555L21.25 15.7812L14.0625 19.3555L21.25 22.9492L28.4375 19.3555ZM12.5195 21.3867L12.5 32.3438L20 36.0742V25.1172L12.5195 21.3867ZM22.5 36.0742L27.5195 33.5938V27.3438L30 26.1133L29.9805 21.3867L22.5 25.1172V36.0742ZM30.0195 30.1367L30 41.0938L37.5 44.8242V33.8672L30.0195 30.1367ZM40 44.8242L47.4805 41.0742V30.1367L40 33.8672V44.8242Z" fill="white"/>
</svg>
